<?xml version="1.0" encoding="UTF-8" standalone="no"?>
<svg
   width="221.44502"
   height="99.9991"
   viewBox="0 0 2.3067189 1.0416573"
   version="1.1"
   id="svg8"
   inkscape:version="1.1.2 (0a00cf5339, 2022-02-04)"
   sodipodi:docname="rm-logo-dark.svg"
   inkscape:export-filename="/home/felicianotech/Projects/revidian-auto/logo/logo-sample-05.png"
   inkscape:export-xdpi="152.38"
   inkscape:export-ydpi="152.38"
   xmlns:inkscape="http://www.inkscape.org/namespaces/inkscape"
   xmlns:sodipodi="http://sodipodi.sourceforge.net/DTD/sodipodi-0.dtd"
   xmlns="http://www.w3.org/2000/svg"
   xmlns:svg="http://www.w3.org/2000/svg"
   xmlns:rdf="http://www.w3.org/1999/02/22-rdf-syntax-ns#"
   xmlns:cc="http://creativecommons.org/ns#"
   xmlns:dc="http://purl.org/dc/elements/1.1/">
  <defs
     id="defs2">
    <rect
       x="0.33121744"
       y="0.16142346"
       width="1.4020648"
       height="0.25126138"
       id="rect1039" />
    <rect
       x="370.73871"
       y="164.30466"
       width="737.26453"
       height="193.79523"
       id="rect9720" />
    <rect
       x="370.73871"
       y="164.30466"
       width="485.47348"
       height="170.04137"
       id="rect9720-8" />
    <rect
       x="370.73871"
       y="164.30466"
       width="485.47348"
       height="170.04137"
       id="rect9720-8-3" />
    <rect
       x="370.73871"
       y="164.30466"
       width="737.26453"
       height="193.79523"
       id="rect9720-6" />
    <rect
       x="370.73871"
       y="164.30466"
       width="485.47348"
       height="170.04137"
       id="rect9720-8-9" />
    <rect
       x="370.73871"
       y="164.30466"
       width="737.26453"
       height="193.79523"
       id="rect9720-2" />
    <rect
       x="370.73871"
       y="164.30466"
       width="485.47348"
       height="170.04137"
       id="rect9720-8-8" />
    <rect
       x="370.73871"
       y="164.30466"
       width="737.26453"
       height="193.79523"
       id="rect9720-4" />
    <rect
       x="370.73871"
       y="164.30466"
       width="485.47348"
       height="170.04137"
       id="rect9720-8-5" />
    <rect
       x="370.73871"
       y="164.30466"
       width="737.26453"
       height="193.79523"
       id="rect9720-69" />
    <rect
       x="370.73871"
       y="164.30466"
       width="485.47348"
       height="170.04137"
       id="rect9720-8-84" />
    <rect
       x="370.73871"
       y="164.30466"
       width="737.26453"
       height="193.79523"
       id="rect9720-3" />
    <rect
       x="370.73871"
       y="164.30466"
       width="485.47348"
       height="170.04137"
       id="rect9720-8-7" />
    <rect
       x="370.73871"
       y="164.30466"
       width="737.26453"
       height="193.79523"
       id="rect9720-27" />
    <rect
       x="370.73871"
       y="164.30466"
       width="485.47348"
       height="170.04137"
       id="rect9720-8-3-2" />
    <rect
       x="370.73871"
       y="164.30466"
       width="737.26453"
       height="193.79523"
       id="rect9720-6-2" />
    <rect
       x="370.73871"
       y="164.30466"
       width="485.47348"
       height="170.04137"
       id="rect9720-8-7-9" />
    <rect
       x="370.73871"
       y="164.30466"
       width="737.26453"
       height="193.79523"
       id="rect9720-27-4" />
    <rect
       x="370.73871"
       y="164.30466"
       width="485.47348"
       height="170.04137"
       id="rect9720-8-3-2-8" />
    <rect
       x="370.73871"
       y="164.30466"
       width="737.26453"
       height="193.79523"
       id="rect9720-6-2-1" />
    <rect
       x="370.73871"
       y="164.30466"
       width="485.47348"
       height="170.04137"
       id="rect9720-8-86" />
    <rect
       x="370.73871"
       y="164.30466"
       width="737.26453"
       height="193.79523"
       id="rect9720-88" />
  </defs>
  <sodipodi:namedview
     id="base"
     pagecolor="#ffffff"
     bordercolor="#666666"
     borderopacity="1.0"
     inkscape:pageopacity="0.0"
     inkscape:pageshadow="2"
     inkscape:zoom="0.70710678"
     inkscape:cx="104.6518"
     inkscape:cy="-154.85639"
     inkscape:document-units="px"
     inkscape:current-layer="layer1"
     inkscape:document-rotation="0"
     showgrid="false"
     units="px"
     inkscape:pagecheckerboard="true"
     inkscape:window-width="1920"
     inkscape:window-height="1136"
     inkscape:window-x="0"
     inkscape:window-y="0"
     inkscape:window-maximized="1"
     showguides="true"
     inkscape:guide-bbox="true"
     fit-margin-top="0"
     fit-margin-left="0"
     fit-margin-right="0"
     fit-margin-bottom="0">
    <sodipodi:guide
       position="-0.93806676,-1.562522"
       orientation="0,-1"
       id="guide902" />
  </sodipodi:namedview>
  <metadata
     id="metadata5">
    <rdf:RDF>
      <cc:Work
         rdf:about="">
        <dc:format>image/svg+xml</dc:format>
        <dc:type
           rdf:resource="http://purl.org/dc/dcmitype/StillImage" />
      </cc:Work>
    </rdf:RDF>
  </metadata>
  <g
     inkscape:label="Layer 1"
     inkscape:groupmode="layer"
     id="layer1"
     transform="translate(-2.8155581,-6.3952114)">
    <path
       inkscape:connector-curvature="0"
       id="path820-7-8-6-5-9-9-4-5"
       d="m 3.3824461,7.348815 c -0.05557,-0.04875 -0.126021,-0.110552 -0.156564,-0.137339 -0.03054,-0.02679 -0.05553,-0.04952 -0.05552,-0.05051 8e-6,-0.0011 0.0056,-0.0047 0.01412,-0.009 0.05827,-0.0298 0.114974,-0.06541 0.154833,-0.09726 0.01629,-0.01301 0.0431,-0.04017 0.05087,-0.05153 0.01237,-0.01809 0.0154,-0.02735 0.019,-0.05807 0.0043,-0.03687 -9.84e-4,-0.06277 -0.01544,-0.0758 -0.0078,-0.007 -0.01564,-0.0096 -0.02858,-0.0095 -0.0056,7.8e-5 -0.0124,6.89e-4 -0.01507,0.0015 -0.0051,0.0015 0.0061,-0.01059 -0.197193,0.210707 -0.02766,0.0301 -0.06174,0.06717 -0.07573,0.08238 -0.04441,0.04827 -0.246326,0.268048 -0.252814,0.27518 -0.0055,0.006 -0.0088,0.0083 -0.0088,0.0061 0,-3.93e-4 0.0083,-0.02137 0.01853,-0.0466 0.01019,-0.02523 0.03135,-0.0778 0.04703,-0.116829 0.01567,-0.03903 0.03786,-0.09423 0.04931,-0.122671 0.01145,-0.02844 0.05419,-0.134788 0.095,-0.236323 0.04081,-0.101534 0.08301,-0.206527 0.0938,-0.233315 0.01078,-0.02679 0.03776,-0.0939 0.05995,-0.149131 0.04579,-0.113971 0.05319,-0.132169 0.05415,-0.133136 0.0017,-0.0017 0.04973,-0.0029 0.08976,-0.0023 0.190229,0.003 0.308846,0.04034 0.342904,0.108074 0.0068,0.01353 0.0092,0.02428 0.01126,0.05068 0.0031,0.03923 0.0021,0.06626 -0.0037,0.101417 -0.01745,0.106167 -0.07679,0.219358 -0.174811,0.333445 -0.04813,0.05602 -0.106692,0.113124 -0.162744,0.158692 -0.0084,0.0069 -0.01533,0.01325 -0.01533,0.01422 0,9.84e-4 0.03645,0.06192 0.08099,0.135461 0.04454,0.07354 0.08162,0.134878 0.08239,0.13631 7.87e-4,0.0014 9.84e-4,0.0029 3.94e-4,0.0032 -5.91e-4,2.96e-4 -0.04645,-0.03927 -0.102018,-0.08802 z"
       style="fill:#ffffff;fill-opacity:1;stroke:none;stroke-width:0.00120265"
       inkscape:export-filename="/home/felicianotech/Projects/revidian-auto/logo/logo-sample-01.png"
       inkscape:export-xdpi="384"
       inkscape:export-ydpi="384" />
    <rect
       style="fill:#0d86ff;fill-opacity:1;stroke:none;stroke-width:0.05428;stroke-linecap:round;stroke-linejoin:round"
       id="rect4914-97-0-7-0-2-6-3"
       width="0.2230625"
       height="1.0302706"
       x="7.7757535"
       y="7.4708195"
       transform="matrix(1,0,-0.5,0.8660254,0,0)" />
    <rect
       style="fill:#f6f6f6;fill-opacity:1;stroke:none;stroke-width:0.05428;stroke-linecap:round;stroke-linejoin:round"
       id="rect4914-0-6-2-6-9-7-9-5"
       width="0.22306012"
       height="1.0302706"
       x="-0.87173206"
       y="7.4708195"
       transform="matrix(-1,0,0.5,0.8660254,0,0)" />
    <rect
       style="fill:#f6f6f6;fill-opacity:1;stroke:none;stroke-width:0.05428;stroke-linecap:round;stroke-linejoin:round"
       id="rect4914-9-3-3-5-8-9-6-6"
       width="0.22306012"
       height="1.0302706"
       x="8.1194916"
       y="7.4708195"
       transform="matrix(1,0,-0.5,0.8660254,0,0)" />
  </g>
</svg>
